# xmcd
#
# Track frame offsets:
#	150
#	19028
#	29473
#	46598
#	59340
#	80588
#	92655
#	104240
#	137688
#	161430
#	172410
#	184138
#	203593
#
# Disc length: 2923
#
# Revision: 1
# Processed by: cddbd v1.5.1PL0 Copyright (c) Steve Scherf et al.
# Submitted via: ExactAudioCopy v0.95a3
# Normalized: r0:TDELIM( - )
#
DISCID=ae0b690d
DTITLE=Various Artist - The Times Music Collection
DYEAR=1994
DGENRE=Blues
TTITLE0=Francesco Bruno - El Lugar
TTITLE1=Jerry Butler - I'm Telling You
TTITLE2=John Lee Hooker - Blues Before Sunrise
TTITLE3=Jimmy Reed - Caress Me Baby
TTITLE4=George Williams - Unchain My Heart
TTITLE5=Lightning Slim - Rooster Blues
TTITLE6=Brook Benton - Hotel Happiness
TTITLE7=Rufus Thomas - Get Up Offa That Funk
TTITLE8=Ike and Tina Turner - A Fool For You
TTITLE9=Little Richard - Tutti Frutti
TTITLE10=Ray Charles - Baby Tell Me What I've Done
TTITLE11=Mississippi John Hurt - Trouble I Had All My Days
TTITLE12=Percy Sledge - Just Out Of Reach
EXTD=
EXTT0=
EXTT1=
EXTT2=
EXTT3=
EXTT4=
EXTT5=
EXTT6=
EXTT7=
EXTT8=
EXTT9=
EXTT10=
EXTT11=
EXTT12=
PLAYORDER=
